<svg xmlns="http://www.w3.org/2000/svg" width="41" height="41" fill="none" viewBox="0 0 41 41"><path fill="#CECECE" d="M29.6136 0.321335C36.3936 0.321335 40.9336 5.08134 40.9336 12.1613V28.5033C40.9336 35.5633 36.3936 40.3213 29.6136 40.3213H12.2736C5.49359 40.3213 0.933594 35.5633 0.933594 28.5033V12.1613C0.933594 5.08134 5.49359 0.321335 12.2736 0.321335H29.6136ZM26.9536 14.2633C26.2736 13.5813 25.1736 13.5813 24.4736 14.2633L20.9336 17.8213L17.3736 14.2633C16.6736 13.5813 15.5736 13.5813 14.8936 14.2633C14.2136 14.9433 14.2136 16.0633 14.8936 16.7413L18.4536 20.3033L14.8936 23.8433C14.2136 24.5433 14.2136 25.6433 14.8936 26.3213C15.2336 26.6613 15.6936 26.8433 16.1336 26.8433C16.5936 26.8433 17.0336 26.6613 17.3736 26.3213L20.9336 22.7833L24.4936 26.3213C24.8336 26.6833 25.2736 26.8433 25.7136 26.8433C26.1736 26.8433 26.6136 26.6613 26.9536 26.3213C27.6336 25.6433 27.6336 24.5433 26.9536 23.8633L23.3936 20.3033L26.9536 16.7413C27.6336 16.0633 27.6336 14.9433 26.9536 14.2633Z"/></svg>