<svg xmlns="http://www.w3.org/2000/svg" width="16" height="16" fill="none" viewBox="0 0 16 16"><path fill="#6AB5FF" fill-rule="evenodd" d="M5 3.24999C5 3.4489 4.92099 3.63967 4.78033 3.78032C4.63968 3.92097 4.44892 3.99999 4.25 3.99999C4.05109 3.99999 3.86033 3.92097 3.71967 3.78032C3.57902 3.63967 3.5 3.4489 3.5 3.24999C3.5 3.05108 3.57902 2.86031 3.71967 2.71966C3.86033 2.57901 4.05109 2.49999 4.25 2.49999C4.44892 2.49999 4.63968 2.57901 4.78033 2.71966C4.92099 2.86031 5 3.05108 5 3.24999V3.24999ZM5 5.37199C5.50042 5.19507 5.92217 4.84694 6.19073 4.38913C6.45929 3.93132 6.55735 3.39331 6.4676 2.87019C6.37785 2.34707 6.10605 1.87252 5.70025 1.53041C5.29445 1.18831 4.78077 1.00067 4.25 1.00067C3.71924 1.00067 3.20556 1.18831 2.79976 1.53041C2.39396 1.87252 2.12216 2.34707 2.03241 2.87019C1.94265 3.39331 2.04072 3.93132 2.30928 4.38913C2.57784 4.84694 2.99959 5.19507 3.5 5.37199V6.24999C3.5 6.84673 3.73706 7.41903 4.15901 7.84098C4.58097 8.26294 5.15327 8.49999 5.75 8.49999H7.25V10.628C6.74932 10.8049 6.3273 11.1532 6.05855 11.6112C5.78981 12.0692 5.69164 12.6075 5.78139 13.1308C5.87115 13.6542 6.14306 14.129 6.54905 14.4713C6.95504 14.8136 7.46897 15.0014 8 15.0014C8.53104 15.0014 9.04497 14.8136 9.45096 14.4713C9.85695 14.129 10.1289 13.6542 10.2186 13.1308C10.3084 12.6075 10.2102 12.0692 9.94146 11.6112C9.67271 11.1532 9.25069 10.8049 8.75 10.628V8.49999H10.25C10.8467 8.49999 11.419 8.26294 11.841 7.84098C12.263 7.41903 12.5 6.84673 12.5 6.24999V5.37199C13.0004 5.19507 13.4222 4.84694 13.6907 4.38913C13.9593 3.93132 14.0574 3.39331 13.9676 2.87019C13.8778 2.34707 13.6061 1.87252 13.2002 1.53041C12.7944 1.18831 12.2808 1.00067 11.75 1.00067C11.2192 1.00067 10.7056 1.18831 10.2998 1.53041C9.89396 1.87252 9.62216 2.34707 9.53241 2.87019C9.44265 3.39331 9.54072 3.93132 9.80928 4.38913C10.0778 4.84694 10.4996 5.19507 11 5.37199V6.24999C11 6.4489 10.921 6.63967 10.7803 6.78032C10.6397 6.92097 10.4489 6.99999 10.25 6.99999H5.75C5.55109 6.99999 5.36033 6.92097 5.21967 6.78032C5.07902 6.63967 5 6.4489 5 6.24999V5.37199ZM8.75 12.75C8.75 12.9489 8.67099 13.1397 8.53033 13.2803C8.38968 13.421 8.19892 13.5 8 13.5C7.80109 13.5 7.61033 13.421 7.46967 13.2803C7.32902 13.1397 7.25 12.9489 7.25 12.75C7.25 12.5511 7.32902 12.3603 7.46967 12.2197C7.61033 12.079 7.80109 12 8 12C8.19892 12 8.38968 12.079 8.53033 12.2197C8.67099 12.3603 8.75 12.5511 8.75 12.75ZM11.75 3.99999C11.9489 3.99999 12.1397 3.92097 12.2803 3.78032C12.421 3.63967 12.5 3.4489 12.5 3.24999C12.5 3.05108 12.421 2.86031 12.2803 2.71966C12.1397 2.57901 11.9489 2.49999 11.75 2.49999C11.5511 2.49999 11.3603 2.57901 11.2197 2.71966C11.079 2.86031 11 3.05108 11 3.24999C11 3.4489 11.079 3.63967 11.2197 3.78032C11.3603 3.92097 11.5511 3.99999 11.75 3.99999Z" clip-rule="evenodd"/></svg>