<svg xmlns="http://www.w3.org/2000/svg" width="16" height="16" fill="none" viewBox="0 0 16 16"><path fill="#6AB5FF" d="M7.99974 10.9651C7.55244 10.9651 7.17749 11.34 7.17749 11.7873C7.17749 12.2346 7.55244 12.6096 7.99974 12.6096C8.43061 12.6096 8.822 12.2346 8.80226 11.8071C8.822 11.3367 8.45034 10.9651 7.99974 10.9651Z"/><path fill="#6AB5FF" d="M15.6107 13.8792C16.127 12.9878 16.1303 11.9255 15.6172 11.0374L10.4666 2.11754C9.95679 1.21963 9.03585 0.686802 8.00309 0.686802C6.97033 0.686802 6.0494 1.22292 5.53959 2.11425L0.382367 11.044C-0.130724 11.9419 -0.127435 13.0109 0.392235 13.9022C0.905326 14.7837 1.82297 15.3132 2.84915 15.3132H13.1373C14.1668 15.3132 15.091 14.7771 15.6107 13.8792ZM14.4924 13.2345C14.2062 13.7279 13.6997 14.0206 13.134 14.0206H2.84586C2.28673 14.0206 1.7835 13.7345 1.50393 13.251C1.22107 12.7609 1.21779 12.1754 1.50064 11.6821L6.65787 2.75561C6.93744 2.26554 7.43737 1.97611 8.00309 1.97611C8.56552 1.97611 9.06874 2.26883 9.34831 2.7589L14.5022 11.6854C14.7785 12.1656 14.7752 12.7445 14.4924 13.2345Z"/><path fill="#6AB5FF" d="M7.79567 5.19278C7.40428 5.30461 7.16089 5.65983 7.16089 6.09069C7.18062 6.35053 7.19707 6.61365 7.2168 6.87348C7.27272 7.86349 7.32863 8.83376 7.38454 9.82376C7.40428 10.1592 7.66411 10.4026 7.9996 10.4026C8.33508 10.4026 8.5982 10.1428 8.61465 9.80403C8.61465 9.6001 8.61465 9.41263 8.63438 9.20542C8.67056 8.57063 8.71003 7.93585 8.74621 7.30106C8.76594 6.88993 8.80212 6.4788 8.82186 6.06767C8.82186 5.91966 8.80212 5.7881 8.74621 5.65654C8.57847 5.28816 8.18707 5.10069 7.79567 5.19278Z"/></svg>