<svg xmlns="http://www.w3.org/2000/svg" width="40" height="39" fill="none" viewBox="0 0 40 39"><path fill="url(#paint0_linear)" fill-rule="evenodd" d="M20 0C8.95 0 0 8.94697 0 19.9932C0 28.8402 5.725 36.3127 13.675 38.9618C14.675 39.1367 15.05 38.5369 15.05 38.0121C15.05 37.5373 15.025 35.9628 15.025 34.2884C10 35.2131 8.7 33.0638 8.3 31.9392C8.075 31.3644 7.1 29.59 6.25 29.1151C5.55 28.7403 4.55 27.8156 6.225 27.7906C7.8 27.7656 8.925 29.2401 9.3 29.8399C11.1 32.8639 13.975 32.0142 15.125 31.4893C15.3 30.1898 15.825 29.3151 16.4 28.8152C11.95 28.3154 7.3 26.591 7.3 18.9436C7.3 16.7693 8.075 14.9699 9.35 13.5704C9.15 13.0706 8.45 11.0213 9.55 8.2722C9.55 8.2722 11.225 7.74738 15.05 10.3215C16.65 9.87166 18.35 9.64673 20.05 9.64673C21.75 9.64673 23.45 9.87166 25.05 10.3215C28.875 7.72238 30.55 8.2722 30.55 8.2722C31.65 11.0213 30.95 13.0706 30.75 13.5704C32.025 14.9699 32.8 16.7443 32.8 18.9436C32.8 26.616 28.125 28.3154 23.675 28.8152C24.4 29.44 25.025 30.6396 25.025 32.514C25.025 35.1881 25 37.3374 25 38.0121C25 38.5369 25.375 39.1617 26.375 38.9618C34.275 36.3127 40 28.8152 40 19.9932C40 8.94697 31.05 0 20 0Z" clip-rule="evenodd"/><defs><linearGradient id="paint0_linear" x1="0" x2="39.986" y1="3.256" y2="45.255" gradientUnits="userSpaceOnUse"><stop stop-color="#6AB5FF"/><stop offset="1" stop-color="#AE5AFF"/></linearGradient></defs></svg>