<svg xmlns="http://www.w3.org/2000/svg" width="20" height="20" fill="none" viewBox="0 0 20 20"><path fill="#000" fill-rule="evenodd" d="M6.87504 4.37501C6.21199 4.37501 5.57611 4.6384 5.10727 5.10724C4.63843 5.57608 4.37504 6.21196 4.37504 6.87501C4.37504 7.53805 4.63843 8.17393 5.10727 8.64277C5.57611 9.11161 6.21199 9.37501 6.87504 9.37501C7.53808 9.37501 8.17396 9.11161 8.6428 8.64277C9.11164 8.17393 9.37504 7.53805 9.37504 6.87501C9.37504 6.21196 9.11164 5.57608 8.6428 5.10724C8.17396 4.6384 7.53808 4.37501 6.87504 4.37501ZM2.50004 6.87501C2.49995 6.14985 2.68011 5.43604 3.02432 4.79778C3.36854 4.15952 3.866 3.61683 4.47198 3.21852C5.07795 2.82021 5.77343 2.57878 6.49586 2.51593C7.21829 2.45308 7.94502 2.57079 8.61067 2.85847C9.27632 3.14616 9.86003 3.59479 10.3093 4.16402C10.7585 4.73325 11.0593 5.40522 11.1844 6.1195C11.3095 6.83378 11.2552 7.56797 11.0262 8.25602C10.7972 8.94408 10.4007 9.56442 9.87254 10.0613C10.8686 10.5445 11.7334 11.2608 12.3936 12.1495C13.0539 13.0382 13.49 14.0731 13.665 15.1663C13.6843 15.2879 13.6795 15.4121 13.6507 15.5319C13.622 15.6517 13.57 15.7646 13.4976 15.8642C13.4252 15.9639 13.3339 16.0483 13.2289 16.1127C13.1239 16.177 13.0073 16.2201 12.8857 16.2394C12.764 16.2587 12.6398 16.2538 12.52 16.2251C12.4003 16.1964 12.2873 16.1443 12.1877 16.0719C12.088 15.9996 12.0036 15.9083 11.9392 15.8033C11.8749 15.6983 11.8318 15.5816 11.8125 15.46C11.6234 14.2867 11.0226 13.2191 10.1178 12.4485C9.21308 11.678 8.06348 11.2547 6.87504 11.2547C5.68659 11.2547 4.53699 11.678 3.63223 12.4485C2.72747 13.2191 2.12668 14.2867 1.93754 15.46C1.91817 15.5816 1.87503 15.6983 1.81058 15.8032C1.74614 15.9082 1.66165 15.9994 1.56194 16.0718C1.46224 16.1441 1.34926 16.196 1.22947 16.2247C1.10968 16.2533 0.985422 16.2581 0.863785 16.2388C0.742148 16.2194 0.625518 16.1762 0.520552 16.1118C0.415587 16.0474 0.324343 15.9629 0.252029 15.8632C0.179715 15.7635 0.127749 15.6505 0.0990958 15.5307C0.0704429 15.4109 0.065665 15.2866 0.085035 15.165C0.260454 14.0723 0.696754 13.038 1.35695 12.1497C2.01715 11.2615 2.88177 10.5455 3.87754 10.0625C3.44195 9.65381 3.09493 9.16001 2.85798 8.61172C2.62103 8.06342 2.4992 7.47231 2.50004 6.87501ZM13.75 5.00001C13.5014 5.00001 13.2629 5.09878 13.0871 5.27459C12.9113 5.45041 12.8125 5.68887 12.8125 5.93751C12.8125 6.18615 12.9113 6.4246 13.0871 6.60042C13.2629 6.77623 13.5014 6.87501 13.75 6.87501C14.173 6.87503 14.5835 7.01804 14.9149 7.28082C15.2463 7.54359 15.4791 7.91069 15.5755 8.32249C15.672 8.73429 15.6264 9.16659 15.4461 9.54919C15.2658 9.93179 14.9615 10.2422 14.5825 10.43C14.4263 10.5077 14.2948 10.6275 14.2029 10.776C14.111 10.9244 14.0624 11.0955 14.0625 11.27V11.71C14.0623 11.9206 14.1329 12.1251 14.2631 12.2907C14.3932 12.4562 14.5753 12.5731 14.78 12.6225C16.28 12.9838 17.4825 14.1225 17.9325 15.5875C17.9682 15.7057 18.0269 15.8157 18.1052 15.9111C18.1835 16.0066 18.2799 16.0856 18.3889 16.1437C18.4978 16.2018 18.6172 16.2378 18.7401 16.2496C18.8629 16.2615 18.987 16.2489 19.105 16.2127C19.223 16.1765 19.3328 16.1173 19.4279 16.0386C19.523 15.9599 19.6016 15.8631 19.6592 15.7539C19.7168 15.6447 19.7523 15.5252 19.7636 15.4023C19.7749 15.2793 19.7618 15.1554 19.725 15.0375C19.4749 14.2257 19.0622 13.4733 18.5121 12.8261C17.9619 12.1788 17.2859 11.6502 16.525 11.2725C17.0137 10.7349 17.3358 10.067 17.452 9.34983C17.5682 8.63268 17.4736 7.89721 17.1796 7.23282C16.8857 6.56843 16.4051 6.00373 15.7963 5.60734C15.1874 5.21096 14.4765 4.99997 13.75 5.00001Z" clip-rule="evenodd"/></svg>