<svg xmlns="http://www.w3.org/2000/svg" width="20" height="20" fill="none" viewBox="0 0 20 20"><path fill="#000" fill-rule="evenodd" d="M2.5 3.125C2.5 2.2962 2.82924 1.50134 3.41529 0.915291C4.00134 0.32924 4.7962 0 5.625 0L16.5625 0C16.8111 0 17.0496 0.098772 17.2254 0.274587C17.4012 0.450403 17.5 0.68886 17.5 0.9375V16.5625C17.5 16.8111 17.4012 17.0496 17.2254 17.2254C17.0496 17.4012 16.8111 17.5 16.5625 17.5H13.4375C13.1889 17.5 12.9504 17.4012 12.7746 17.2254C12.5988 17.0496 12.5 16.8111 12.5 16.5625C12.5 16.3139 12.5988 16.0754 12.7746 15.8996C12.9504 15.7238 13.1889 15.625 13.4375 15.625H15.625V13.125H5.625C5.37885 13.125 5.1382 13.1977 4.93321 13.334C4.72822 13.4703 4.56802 13.664 4.4727 13.891C4.37739 14.1179 4.3512 14.3679 4.39741 14.6097C4.44363 14.8515 4.5602 15.0742 4.7325 15.25C4.90655 15.4277 5.00288 15.6673 5.0003 15.916C4.99772 16.1647 4.89645 16.4022 4.71875 16.5763C4.54106 16.7503 4.3015 16.8466 4.05278 16.8441C3.80406 16.8415 3.56655 16.7402 3.3925 16.5625C2.81964 15.9786 2.49912 15.193 2.5 14.375V3.125ZM15.625 1.875V11.25H5.625C5.18 11.25 4.7575 11.3425 4.375 11.51V3.125C4.375 2.79348 4.5067 2.47554 4.74112 2.24112C4.97554 2.0067 5.29348 1.875 5.625 1.875H15.625ZM6.25 15.3125V19.375C6.25 19.433 6.26616 19.4899 6.29667 19.5393C6.32718 19.5887 6.37084 19.6286 6.42275 19.6545C6.47466 19.6805 6.53277 19.6915 6.59057 19.6862C6.64837 19.681 6.70357 19.6598 6.75 19.625L8.5625 18.2663C8.61659 18.2257 8.68239 18.2038 8.75 18.2038C8.81762 18.2038 8.88341 18.2257 8.9375 18.2663L10.75 19.625C10.7964 19.6598 10.8516 19.681 10.9094 19.6862C10.9672 19.6915 11.0253 19.6805 11.0773 19.6545C11.1292 19.6286 11.1728 19.5887 11.2033 19.5393C11.2338 19.4899 11.25 19.433 11.25 19.375V15.3125C11.25 15.2296 11.2171 15.1501 11.1585 15.0915C11.0999 15.0329 11.0204 15 10.9375 15H6.5625C6.47962 15 6.40014 15.0329 6.34153 15.0915C6.28293 15.1501 6.25 15.2296 6.25 15.3125Z" clip-rule="evenodd"/></svg>