<svg xmlns="http://www.w3.org/2000/svg" width="15" height="15" fill="none" viewBox="0 0 15 15"><path fill="#6AB5FF" fill-rule="evenodd" d="M7.4091 0.836945C7.54911 0.836854 7.68636 0.875958 7.8053 0.949831C7.92424 1.0237 8.02012 1.1294 8.0821 1.25494L9.9641 5.06994L14.1741 5.68194C14.3126 5.70205 14.4426 5.76049 14.5496 5.85066C14.6566 5.94083 14.7363 6.05912 14.7795 6.19218C14.8228 6.32523 14.828 6.46774 14.7945 6.6036C14.761 6.73945 14.6902 6.86323 14.5901 6.96094L11.5441 9.93094L12.2631 14.1229C12.2868 14.2609 12.2715 14.4027 12.2188 14.5323C12.1661 14.662 12.0782 14.7743 11.965 14.8566C11.8518 14.9389 11.7178 14.9879 11.5782 14.998C11.4386 15.0082 11.299 14.979 11.1751 14.9139L7.4091 12.9339L3.6431 14.9139C3.51929 14.979 3.37977 15.0081 3.24029 14.998C3.10081 14.9879 2.96694 14.939 2.85378 14.8568C2.74062 14.7746 2.65269 14.6625 2.59991 14.533C2.54713 14.4035 2.53161 14.2618 2.5551 14.1239L3.2751 9.92994L0.2271 6.96094C0.126666 6.86327 0.0555992 6.73941 0.0219518 6.60341C-0.0116957 6.46742 -0.00657816 6.32471 0.0367245 6.19147C0.0800271 6.05823 0.159783 5.93979 0.266956 5.84956C0.374128 5.75932 0.504431 5.70091 0.6431 5.68094L4.8531 5.06994L6.7361 1.25494C6.79808 1.1294 6.89396 1.0237 7.0129 0.949831C7.13184 0.875958 7.26909 0.836854 7.4091 0.836945V0.836945ZM7.4091 3.28194L6.0241 6.08694C5.97032 6.19585 5.89089 6.29006 5.79264 6.36147C5.6944 6.43289 5.58028 6.47938 5.4601 6.49694L2.3631 6.94694L4.6031 9.13094C4.69025 9.21581 4.75545 9.3206 4.79309 9.43627C4.83072 9.55195 4.83964 9.67505 4.8191 9.79494L4.2911 12.8789L7.0601 11.4229C7.16773 11.3664 7.2875 11.3368 7.4091 11.3368C7.5307 11.3368 7.65047 11.3664 7.7581 11.4229L10.5281 12.8789L9.9981 9.79494C9.97756 9.67505 9.98648 9.55195 10.0241 9.43627C10.0617 9.3206 10.1269 9.21581 10.2141 9.13094L12.4541 6.94794L9.3581 6.49794C9.23792 6.48038 9.1238 6.43389 9.02556 6.36247C8.92731 6.29106 8.84788 6.19685 8.7941 6.08794L7.4091 3.28094V3.28194Z" clip-rule="evenodd"/></svg>