<svg xmlns="http://www.w3.org/2000/svg" width="853.333" height="853.333" preserveAspectRatio="xMidYMid meet" version="1.0" viewBox="0 0 640 640"><metadata>Created by potrace 1.14, written by Peter Selinger 2001-2017</metadata><g fill="#000" stroke="none"><path d="M2978 6315 c-2 -2 -35 -6 -73 -10 -80 -6 -127 -11 -170 -19 -16 -3 -73 -12 -125 -21 -52 -9 -108 -20 -125 -25 -16 -5 -41 -12 -55 -14 -40 -8 -163 -43 -190 -54 -14 -5 -29 -10 -33 -10 -4 0 -20 -5 -35 -10 -15 -6 -72 -27 -127 -48 -55 -21 -110 -44 -122 -52 -13 -8 -23 -12 -23 -9 0 17 -333 -165 -480 -263 -68 -45 -250 -183 -310 -234 -60 -52 -314 -309 -350 -355 -19 -24 -40 -48 -45 -55 -24 -26 -135 -175 -171 -231 -21 -33 -42 -61 -46 -63 -5 -2 -8 -8 -8 -13 0 -5 -11 -26 -24 -47 -53 -81 -132 -234 -210 -404 -36 -79 -131 -350 -141 -403 -2 -11 -4 -20 -6 -20 -1 0 -3 -9 -4 -20 -2 -11 -10 -48 -19 -82 -18 -65 -43 -195 -50 -253 -3 -19 -7 -53 -10 -75 -16 -115 -21 -201 -20 -410 1 -126 4 -259 8 -295 3 -36 8 -83 10 -105 3 -22 7 -53 11 -70 3 -16 8 -43 10 -60 3 -16 7 -41 10 -55 2 -14 7 -41 10 -60 6 -34 61 -251 71 -280 3 -8 5 -16 5 -17 -1 -2 40 -117 75 -213 3 -8 5 -17 6 -20 0 -3 6 -16 13 -30 7 -14 17 -36 23 -50 25 -60 115 -240 147 -295 19 -33 38 -67 42 -75 12 -27 58 -95 66 -98 4 -2 7 -9 7 -16 0 -6 9 -23 19 -36 11 -14 46 -62 78 -106 99 -138 165 -216 313 -364 215 -216 418 -373 665 -514 55 -32 107 -61 115 -67 8 -5 24 -13 35 -18 11 -5 58 -27 105 -49 203 -96 340 -142 409 -138 57 4 90 23 125 70 20 26 21 40 21 349 l0 322 -30 -1 c-17 -1 -57 -5 -90 -8 -33 -4 -77 -9 -98 -11 -21 -2 -42 -7 -47 -10 -5 -3 -11 -1 -15 5 -4 6 -10 8 -15 5 -18 -11 -184 -5 -270 10 -124 21 -204 52 -300 116 -81 53 -165 159 -200 249 -15 40 -90 190 -103 205 -4 6 -25 38 -47 72 -53 83 -141 176 -198 209 -26 15 -58 38 -72 51 -14 13 -28 23 -31 23 -9 0 -39 64 -39 82 0 54 176 68 296 23 113 -42 201 -117 331 -278 8 -10 18 -29 23 -43 5 -13 14 -24 20 -24 5 0 10 -7 10 -15 0 -8 5 -15 10 -15 6 0 10 -6 10 -12 0 -7 33 -44 73 -83 101 -96 219 -154 344 -170 75 -10 113 -12 117 -8 2 3 28 6 58 8 63 5 112 14 153 29 125 47 124 46 130 85 11 68 58 202 87 247 15 25 28 48 28 52 1 4 19 25 40 47 21 22 38 40 37 42 -2 1 -18 4 -37 7 -19 2 -46 7 -60 10 -14 3 -45 8 -70 11 -25 3 -67 10 -95 16 -27 6 -59 12 -70 14 -11 2 -45 11 -75 20 -30 9 -65 18 -77 21 -12 2 -35 9 -50 16 -16 6 -30 12 -33 12 -48 12 -227 99 -282 137 -14 11 -31 19 -36 19 -6 0 -12 3 -14 8 -2 4 -29 27 -60 51 -160 121 -327 358 -382 541 -1 3 -5 11 -9 18 -5 6 -6 12 -2 12 3 0 -1 13 -10 30 -8 16 -14 33 -13 37 1 4 -4 26 -10 48 -6 22 -14 56 -17 75 -3 19 -8 42 -11 51 -7 23 -22 138 -29 224 -6 62 -6 313 -1 338 3 12 7 40 10 62 19 153 77 318 160 459 34 58 138 196 147 196 4 0 1 19 -7 43 -16 44 -28 93 -40 167 -15 87 -8 346 12 412 3 9 7 26 9 38 2 11 9 35 15 53 5 18 18 57 28 87 19 57 25 62 82 62 193 3 422 -87 772 -302 49 -30 53 -30 128 -10 59 16 78 20 123 26 21 3 49 9 63 14 14 6 28 9 32 8 7 -2 108 10 152 18 97 17 419 23 580 11 107 -8 266 -29 333 -43 9 -2 27 -6 40 -9 63 -14 133 -29 137 -30 56 -16 58 -16 126 28 38 24 94 59 124 76 30 18 62 36 70 41 89 54 316 141 422 161 66 12 184 16 194 6 9 -9 62 -173 68 -213 4 -20 8 -39 10 -43 8 -13 19 -151 18 -237 0 -99 -22 -244 -46 -313 l-16 -43 43 -52 c146 -173 243 -397 274 -631 8 -61 8 -348 0 -426 -23 -216 -59 -364 -130 -529 -38 -89 -105 -209 -134 -238 -7 -7 -13 -17 -13 -20 0 -12 -143 -157 -195 -198 -27 -21 -51 -42 -53 -46 -2 -5 -8 -8 -14 -8 -5 0 -24 -11 -41 -24 -77 -57 -271 -139 -447 -190 -59 -17 -226 -51 -300 -61 -108 -14 -123 -18 -109 -29 28 -21 87 -102 113 -153 44 -89 68 -173 82 -288 10 -83 12 -585 2 -612 -4 -13 -4 -23 0 -23 6 0 8 -159 2 -185 -1 -5 -1 -14 0 -20 1 -8 1 -59 -1 -165 -2 -111 85 -185 198 -167 110 17 454 174 656 299 43 26 80 48 82 48 4 0 129 89 182 129 15 12 41 31 58 44 141 106 439 401 527 522 4 5 18 24 31 40 44 56 123 170 130 188 3 9 11 17 17 17 5 0 10 4 10 8 0 5 28 55 63 113 85 141 207 391 207 422 0 7 5 18 12 25 6 6 13 17 14 24 2 7 19 58 38 114 54 154 102 343 130 504 19 116 23 142 33 246 15 149 7 597 -12 694 -2 14 -7 45 -9 70 -6 49 -9 69 -32 175 -8 39 -17 81 -20 95 -23 114 -113 389 -170 518 -32 71 -134 277 -165 332 -77 137 -283 430 -301 430 -4 0 -8 4 -8 9 0 5 -17 29 -37 53 -55 63 -322 328 -368 365 -131 104 -172 136 -190 145 -11 6 -22 14 -25 17 -9 11 -78 61 -84 61 -4 0 -28 15 -54 33 -26 18 -54 36 -62 40 -8 4 -37 21 -65 38 -88 53 -348 176 -435 206 -25 8 -58 21 -75 28 -33 14 -162 55 -185 58 -8 2 -19 5 -25 8 -9 6 -74 22 -130 34 -11 2 -53 11 -92 19 -113 24 -160 32 -249 41 -28 3 -62 8 -75 11 -26 7 -535 15 -541 9z" transform="translate(0.000000,640.000000) scale(0.100000,-0.100000)"/></g></svg>